<svg xmlns="http://www.w3.org/2000/svg" xmlns:xlink="http://www.w3.org/1999/xlink" viewBox="0 0 322.37 388.21">
  <defs>
    <style>
      .cls-1, .cls-12, .cls-15, .cls-2 {
        fill: none;
      }

      .cls-1, .cls-18, .cls-2 {
        stroke: #231f20;
      }

      .cls-1, .cls-10, .cls-12, .cls-13, .cls-14, .cls-15, .cls-16, .cls-17, .cls-18, .cls-2, .cls-9 {
        stroke-miterlimit: 10;
      }

      .cls-18, .cls-2 {
        stroke-width: 2px;
      }

      .cls-3 {
        clip-path: url(#clip-path);
      }

      .cls-4 {
        fill: #0a4f93;
      }

      .cls-5 {
        fill: #1c3c6c;
      }

      .cls-6 {
        fill: #eff8f9;
      }

      .cls-7 {
        fill: #aaabab;
      }

      .cls-8 {
        clip-path: url(#clip-path-2);
      }

      .cls-9 {
        fill: #fdfefe;
      }

      .cls-10, .cls-12, .cls-13, .cls-14, .cls-16, .cls-17, .cls-9 {
        stroke: #000;
      }

      .cls-10 {
        fill: #fafdfd;
      }

      .cls-11 {
        fill: #020404;
      }

      .cls-13 {
        fill: #f7f9f9;
      }

      .cls-14 {
        fill: #fff;
      }

      .cls-15 {
        stroke: #020404;
      }

      .cls-16 {
        fill: #f4f8f9;
      }

      .cls-17 {
        fill: #525454;
      }

      .cls-18 {
        fill: #fbfdfb;
      }

      .cls-19 {
        fill: #010101;
      }
    </style>
    <clipPath id="clip-path" transform="translate(-163.94 -320.12)">
      <path class="cls-1" d="M187.35,690.27a6.74,6.74,0,0,1-10.24-5.77l.39-170.26L177.88,344a6.73,6.73,0,0,1,10.26-5.72l138.34,85.18L465.7,509.14a6.74,6.74,0,0,1,0,11.49l-139.6,85.09Z"/>
    </clipPath>
    <clipPath id="clip-path-2" transform="translate(-163.94 -320.12)">
      <path class="cls-2" d="M187.35,690.27a6.74,6.74,0,0,1-10.24-5.77l.39-170.26L177.88,344a6.73,6.73,0,0,1,10.26-5.72l138.34,85.18L465.7,509.14a6.74,6.74,0,0,1,0,11.49l-139.6,85.09Z"/>
    </clipPath>
  </defs>
  <title>SpectrumDenver</title>
  <g id="clippingLayer">
    <g>
      <g class="cls-3">
        <polygon class="cls-4" points="8.57 123.61 6.28 375.22 17.76 378.67 314.19 195.99 170.57 101.78 8.57 93.74 8.57 123.61"/>
        <path class="cls-5" d="M169.07,458.66c0-11.49,4.59-134.42,4.59-134.42L372.43,443.73s-31,14.93-51.7,11.49-55.15-31-73.53-29.87S169.07,470.15,169.07,458.66Z" transform="translate(-163.94 -320.12)"/>
        <polygon class="cls-6" points="3.98 217.82 72.91 179.91 128.06 218.97 167.13 200.59 194.7 218.97 245.25 182.2 291.21 209.78 7.42 386.71 3.98 217.82"/>
        <polyline class="cls-7" points="136.23 224.08 72.91 179.91 13.87 211.82 13.94 231.16 72.91 179.91"/>
        <polygon class="cls-7" points="128.06 218.97 140.32 228.16 167.13 200.59 128.06 218.97"/>
        <polygon class="cls-7" points="196.23 218.59 210.02 228.16 245.25 182.2 196.23 218.59"/>
      </g>
      <path class="cls-1" d="M187.35,690.27a6.74,6.74,0,0,1-10.24-5.77l.39-170.26L177.88,344a6.73,6.73,0,0,1,10.26-5.72l138.34,85.18L465.7,509.14a6.74,6.74,0,0,1,0,11.49l-139.6,85.09Z" transform="translate(-163.94 -320.12)"/>
    </g>
  </g>
  <g id="finsihing">
    <polyline class="cls-2" points="13.68 211.82 72.91 179.91 140.32 228.16"/>
    <polyline class="cls-2" points="128.06 218.97 167.13 200.59 210.02 228.16"/>
    <polyline class="cls-2" points="194.7 218.97 245.25 182.2 287.76 207.48"/>
  </g>
  <g id="buildings">
    <g>
      <g class="cls-8">
        <path class="cls-9" d="M190.39,639.17l2.55-126.12s2-10.73,17.36-12.26v8.68s15.45-.64,17.36,13.28l-1,127.15H188.86Z" transform="translate(-163.94 -320.12)"/>
        <rect class="cls-10" x="142.62" y="191.65" width="40.09" height="66.89"/>
        <rect class="cls-11" x="156.46" y="261.7" width="12.42" height="18.86" rx="0.68"/>
        <rect class="cls-11" x="159.63" y="195.83" width="6.08" height="62.91" rx="0.68"/>
        <rect class="cls-11" x="171.5" y="195.83" width="6.08" height="62.76" rx="0.68"/>
        <rect class="cls-11" x="147.75" y="195.83" width="6.08" height="62.97" rx="0.68"/>
        <rect class="cls-12" x="137.25" y="258.54" width="51.32" height="31.04"/>
        <rect class="cls-9" x="77.51" y="213.35" width="33.7" height="91.4"/>
        <rect class="cls-12" x="80.96" y="209.59" width="27.38" height="3.45"/>
        <rect class="cls-13" x="126.27" y="269.01" width="38.43" height="6.4"/>
        <rect class="cls-14" x="119.64" y="272.59" width="49.02" height="35.23"/>
        <rect id="window" class="cls-11" x="123.02" y="299.19" width="5.11" height="3.83" rx="0.68"/>
        <rect class="cls-9" x="154.87" y="186.29" width="15.06" height="5.33"/>
        <rect class="cls-12" x="162.02" y="172.25" width="1.02" height="13.96"/>
        <line class="cls-15" x1="77.25" y1="251.91" x2="111.34" y2="251.91"/>
        <line class="cls-15" x1="76.87" y1="257.65" x2="110.96" y2="257.65"/>
        <line class="cls-15" x1="77.13" y1="265.69" x2="111.21" y2="265.69"/>
        <line class="cls-15" x1="77.13" y1="272.71" x2="111.21" y2="272.71"/>
        <rect class="cls-11" x="174.08" y="261.7" width="12.42" height="18.86" rx="0.68"/>
        <line class="cls-15" x1="77.25" y1="279.99" x2="111.34" y2="279.99"/>
        <line class="cls-15" x1="77.06" y1="287.97" x2="111.15" y2="287.97"/>
        <line class="cls-15" x1="77" y1="295.18" x2="111.08" y2="295.18"/>
        <line class="cls-15" x1="77.38" y1="218.08" x2="111.47" y2="218.08"/>
        <line class="cls-15" x1="77.38" y1="225.22" x2="111.47" y2="225.22"/>
        <rect class="cls-16" x="46.36" y="247.05" width="40.85" height="107.23"/>
        <rect class="cls-17" x="50.7" y="252.67" width="32.17" height="4.6"/>
        <rect class="cls-17" x="50.7" y="261.1" width="32.17" height="4.6"/>
        <rect class="cls-17" x="50.7" y="269.52" width="32.17" height="4.6"/>
        <rect class="cls-17" x="50.7" y="277.95" width="32.17" height="4.6"/>
        <rect class="cls-17" x="50.7" y="286.88" width="32.17" height="4.6"/>
        <rect class="cls-17" x="50.7" y="295.56" width="32.17" height="4.6"/>
        <rect class="cls-17" x="50.7" y="305.52" width="32.17" height="4.6"/>
        <rect class="cls-17" x="50.7" y="315.82" width="32.17" height="4.6"/>
        <rect class="cls-17" x="50.7" y="325.78" width="32.17" height="4.6"/>
        <rect class="cls-17" x="50.7" y="335.74" width="32.17" height="4.6"/>
        <rect class="cls-17" x="50.7" y="344.93" width="32.17" height="4.6"/>
        <rect class="cls-14" x="18.53" y="319.31" width="37.53" height="56.68"/>
        <rect class="cls-9" x="66.02" y="300.16" width="58.98" height="50.55"/>
        <rect class="cls-11" x="142.42" y="222.03" width="40.02" height="0.77"/>
        <rect class="cls-11" x="92.96" y="325.12" width="5.11" height="3.83" rx="0.68"/>
        <rect class="cls-11" x="81.56" y="333.04" width="5.11" height="3.83" rx="0.68"/>
        <rect class="cls-11" x="115.74" y="310.19" width="5.11" height="3.83" rx="0.68"/>
        <rect class="cls-11" x="104.35" y="317.7" width="5.11" height="3.83" rx="0.68"/>
        <rect class="cls-11" x="157.2" y="283.61" width="5.11" height="3.83" rx="0.68"/>
        <rect class="cls-11" x="145.81" y="291.53" width="5.11" height="3.83" rx="0.68"/>
        <rect class="cls-11" x="134.41" y="299.19" width="5.11" height="3.83" rx="0.68"/>
      </g>
      <path class="cls-2" d="M187.35,690.27a6.74,6.74,0,0,1-10.24-5.77l.39-170.26L177.88,344a6.73,6.73,0,0,1,10.26-5.72l138.34,85.18L465.7,509.14a6.74,6.74,0,0,1,0,11.49l-139.6,85.09Z" transform="translate(-163.94 -320.12)"/>
    </g>
    <line class="cls-15" x1="77.38" y1="232.37" x2="111.47" y2="232.37"/>
    <line class="cls-15" x1="77.38" y1="239.54" x2="110.98" y2="239.54"/>
    <line class="cls-15" x1="77" y1="245.78" x2="111.08" y2="245.78"/>
    <line class="cls-12" x1="19.3" y1="326.71" x2="55.55" y2="326.71"/>
    <line class="cls-12" x1="18.28" y1="333.86" x2="55.04" y2="333.86"/>
    <line class="cls-12" x1="18.79" y1="350.2" x2="55.55" y2="349.18"/>
    <line class="cls-12" x1="18.79" y1="356.84" x2="44.32" y2="356.84"/>
    <line class="cls-12" x1="18.28" y1="365.52" x2="33.08" y2="365.01"/>
    <rect class="cls-11" x="30.42" y="204.72" width="5.11" height="3.83" rx="0.68"/>
    <rect class="cls-11" x="39.11" y="204.72" width="5.11" height="3.83" rx="0.68"/>
    <rect class="cls-11" x="47.8" y="204.72" width="5.11" height="3.83" rx="0.68"/>
    <rect class="cls-11" x="56.48" y="204.72" width="5.11" height="3.83" rx="0.68"/>
    <rect class="cls-11" x="30.42" y="213.02" width="5.11" height="3.83" rx="0.68"/>
    <rect class="cls-11" x="39.11" y="213.02" width="5.11" height="3.83" rx="0.68"/>
    <rect class="cls-11" x="47.8" y="213.02" width="5.11" height="3.83" rx="0.68"/>
    <rect class="cls-11" x="56.48" y="213.02" width="5.11" height="3.83" rx="0.68"/>
    <rect class="cls-11" x="30.42" y="221.83" width="5.11" height="3.83" rx="0.68"/>
    <rect class="cls-11" x="39.11" y="221.83" width="5.11" height="3.83" rx="0.68"/>
    <rect class="cls-11" x="47.8" y="221.83" width="5.11" height="3.83" rx="0.68"/>
    <rect class="cls-11" x="56.48" y="221.83" width="5.11" height="3.83" rx="0.68"/>
    <rect class="cls-11" x="30.42" y="231.11" width="5.11" height="3.83" rx="0.68"/>
    <rect class="cls-11" x="39.11" y="231.11" width="5.11" height="3.83" rx="0.68"/>
    <rect class="cls-11" x="47.8" y="231.11" width="5.11" height="3.83" rx="0.68"/>
    <rect class="cls-11" x="56.48" y="231.11" width="5.11" height="3.83" rx="0.68"/>
    <rect class="cls-11" x="30.42" y="239.08" width="5.11" height="3.83" rx="0.68"/>
    <rect class="cls-11" x="39.11" y="239.08" width="5.11" height="3.83" rx="0.68"/>
    <rect class="cls-11" x="47.8" y="239.08" width="5.11" height="3.83" rx="0.68"/>
    <rect class="cls-11" x="56.48" y="239.08" width="5.11" height="3.83" rx="0.68"/>
    <rect class="cls-11" x="30.42" y="248.27" width="5.11" height="3.83" rx="0.68"/>
    <rect class="cls-11" x="39.11" y="248.27" width="5.11" height="3.83" rx="0.68"/>
    <rect class="cls-11" x="30.42" y="255.74" width="5.11" height="3.83" rx="0.68"/>
    <rect class="cls-11" x="39.11" y="255.74" width="5.11" height="3.83" rx="0.68"/>
    <rect class="cls-11" x="30.42" y="264.35" width="5.11" height="3.83" rx="0.68"/>
    <rect class="cls-11" x="39.11" y="264.35" width="5.11" height="3.83" rx="0.68"/>
    <rect class="cls-11" x="30.42" y="273.35" width="5.11" height="3.83" rx="0.68"/>
    <rect class="cls-11" x="39.11" y="273.35" width="5.11" height="3.83" rx="0.68"/>
    <rect class="cls-11" x="30.42" y="282.16" width="5.11" height="3.83" rx="0.68"/>
    <rect class="cls-11" x="39.11" y="282.16" width="5.11" height="3.83" rx="0.68"/>
    <rect class="cls-11" x="30.42" y="291.16" width="5.11" height="3.83" rx="0.68"/>
    <rect class="cls-11" x="39.11" y="291.16" width="5.11" height="3.83" rx="0.68"/>
    <rect class="cls-11" x="30.42" y="301.12" width="5.11" height="3.83" rx="0.68"/>
    <rect class="cls-11" x="39.11" y="301.12" width="5.11" height="3.83" rx="0.68"/>
    <rect class="cls-11" x="30.42" y="311.27" width="5.11" height="3.83" rx="0.68"/>
    <rect class="cls-11" x="39.11" y="311.27" width="5.11" height="3.83" rx="0.68"/>
    <path class="cls-18" d="M257.54,456.37a17.25,17.25,0,0,1,10.56-15.9A17.22,17.22,0,1,0,264.21,470,17.15,17.15,0,0,1,257.54,456.37Z" transform="translate(-163.94 -320.12)"/>
    <path class="cls-19" d="M394.11,487.39h-1v-1a.49.49,0,0,0-.48-.48h-.43a.49.49,0,0,0-.49.48v1h-1a.47.47,0,0,0-.48.48v.39a.48.48,0,0,0,.48.48h1v1.05a.48.48,0,0,0,.49.48h.43a.48.48,0,0,0,.48-.48v-1.05h1a.48.48,0,0,0,.48-.48v-.39A.47.47,0,0,0,394.11,487.39Z" transform="translate(-163.94 -320.12)"/>
    <path class="cls-19" d="M224.07,394.07h-1v-1a.49.49,0,0,0-.49-.48h-.42a.49.49,0,0,0-.49.48v1h-1a.49.49,0,0,0-.49.48v.39a.48.48,0,0,0,.49.48h1v1.05a.48.48,0,0,0,.49.48h.42a.48.48,0,0,0,.49-.48v-1.05h1a.48.48,0,0,0,.48-.48v-.39A.49.49,0,0,0,224.07,394.07Z" transform="translate(-163.94 -320.12)"/>
    <path class="cls-19" d="M370.6,469.87h-1.08v-.95a.5.5,0,0,0-.53-.44h-.46a.5.5,0,0,0-.53.44v.95h-1.07a.49.49,0,0,0-.52.44v.36a.49.49,0,0,0,.52.44H368v1a.5.5,0,0,0,.53.44H369a.5.5,0,0,0,.53-.44v-1h1.08a.49.49,0,0,0,.52-.44v-.36A.49.49,0,0,0,370.6,469.87Z" transform="translate(-163.94 -320.12)"/>
    <path class="cls-19" d="M220.05,477.3H219v-.94a.5.5,0,0,0-.53-.45H218a.5.5,0,0,0-.53.45v.94h-1.06a.5.5,0,0,0-.53.45v.35a.5.5,0,0,0,.53.44h1.06v1a.5.5,0,0,0,.53.45h.46a.5.5,0,0,0,.53-.45v-1h1.08a.49.49,0,0,0,.52-.44v-.35A.49.49,0,0,0,220.05,477.3Z" transform="translate(-163.94 -320.12)"/>
    <path class="cls-19" d="M358.5,478.55h-.62V478a.28.28,0,0,0-.31-.25h-.27a.28.28,0,0,0-.3.25v.55h-.62a.29.29,0,0,0-.3.26v.2a.28.28,0,0,0,.3.26H357v.56a.28.28,0,0,0,.3.25h.27a.28.28,0,0,0,.31-.25v-.56h.62a.28.28,0,0,0,.31-.26v-.2A.29.29,0,0,0,358.5,478.55Z" transform="translate(-163.94 -320.12)"/>
    <path class="cls-19" d="M210,403.68h-.62v-.55a.28.28,0,0,0-.3-.25h-.27a.27.27,0,0,0-.3.25v.55h-.62a.27.27,0,0,0-.3.25v.21a.27.27,0,0,0,.3.25h.62V405a.27.27,0,0,0,.3.25h.27a.28.28,0,0,0,.3-.25v-.56H210a.27.27,0,0,0,.3-.25v-.21A.27.27,0,0,0,210,403.68Z" transform="translate(-163.94 -320.12)"/>
    <path class="cls-19" d="M288.62,421.36h-.7v-.61a.32.32,0,0,0-.34-.28h-.3a.32.32,0,0,0-.34.28v.61h-.69a.32.32,0,0,0-.34.28v.23a.32.32,0,0,0,.34.28h.69v.62a.31.31,0,0,0,.34.28h.3a.31.31,0,0,0,.34-.28v-.62h.7a.31.31,0,0,0,.34-.28v-.23A.32.32,0,0,0,288.62,421.36Z" transform="translate(-163.94 -320.12)"/>
    <path class="cls-19" d="M297.34,500.07h-.63v-.54a.28.28,0,0,0-.3-.26h-.27a.28.28,0,0,0-.31.26v.54h-.61a.29.29,0,0,0-.31.26v.21a.28.28,0,0,0,.31.25h.61v.56a.28.28,0,0,0,.31.25h.27a.27.27,0,0,0,.3-.25v-.56h.63a.27.27,0,0,0,.3-.25v-.21A.28.28,0,0,0,297.34,500.07Z" transform="translate(-163.94 -320.12)"/>
  </g>
  <g id="outside">
    <path id="outsideTri" class="cls-2" d="M184.71,705.41a13,13,0,0,1-19.77-11.13l.41-180.08.4-180.09a13,13,0,0,1,19.82-11L331.5,412.92l147.63,90.9a13,13,0,0,1-.05,22.17l-148,90.23Z" transform="translate(-163.94 -320.12)"/>
    <rect class="cls-11" x="115.74" y="303.27" width="5.11" height="3.83" rx="0.68"/>
    <rect class="cls-11" x="104.35" y="303.27" width="5.11" height="3.83" rx="0.68"/>
    <rect class="cls-11" x="92.96" y="303.27" width="5.11" height="3.83" rx="0.68"/>
    <rect class="cls-11" x="70.17" y="303.27" width="5.11" height="3.83" rx="0.68"/>
    <rect class="cls-11" x="81.56" y="303.27" width="5.11" height="3.83" rx="0.68"/>
    <rect class="cls-11" x="157.2" y="276.08" width="5.11" height="3.83" rx="0.68"/>
    <rect class="cls-11" x="145.81" y="276.08" width="5.11" height="3.83" rx="0.68"/>
    <rect class="cls-11" x="123.02" y="276.08" width="5.11" height="3.83" rx="0.68"/>
    <rect class="cls-11" x="134.41" y="276.08" width="5.11" height="3.83" rx="0.68"/>
    <rect class="cls-11" x="139.42" y="261.7" width="12.42" height="7.33" rx="0.68"/>
    <rect class="cls-11" x="145.81" y="283.61" width="5.11" height="3.83" rx="0.68"/>
    <rect class="cls-11" x="123.02" y="283.61" width="5.11" height="3.83" rx="0.68"/>
    <rect class="cls-11" x="134.41" y="283.61" width="5.11" height="3.83" rx="0.68"/>
    <rect class="cls-11" x="123.02" y="291.53" width="5.11" height="3.83" rx="0.68"/>
    <rect class="cls-11" x="134.41" y="291.53" width="5.11" height="3.83" rx="0.68"/>
    <rect class="cls-11" x="92.96" y="317.7" width="5.11" height="3.83" rx="0.68"/>
    <rect class="cls-11" x="70.17" y="317.7" width="5.11" height="3.83" rx="0.68"/>
    <rect class="cls-11" x="81.56" y="317.7" width="5.11" height="3.83" rx="0.68"/>
    <rect class="cls-11" x="70.17" y="325.12" width="5.11" height="3.83" rx="0.68"/>
    <rect class="cls-11" x="81.56" y="325.12" width="5.11" height="3.83" rx="0.68"/>
    <rect class="cls-11" x="70.17" y="333.04" width="5.11" height="3.83" rx="0.68"/>
    <rect class="cls-11" x="104.35" y="310.19" width="5.11" height="3.83" rx="0.68"/>
    <rect class="cls-11" x="92.96" y="310.19" width="5.11" height="3.83" rx="0.68"/>
    <rect class="cls-11" x="70.17" y="310.19" width="5.11" height="3.83" rx="0.68"/>
    <rect class="cls-11" x="81.56" y="310.19" width="5.11" height="3.83" rx="0.68"/>
  </g>
</svg>
